<svg xmlns="http://www.w3.org/2000/svg" viewBox="0 0 200 200"><rect x="12" y="12" width="176" height="176" rx="38" fill="#1F3D34"/><path d="M36 156 L36 72 L100 18 L164 72 L164 156 M36 156 L72 156 M128 156 L164 156" fill="none" stroke="#FFF" stroke-width="8" stroke-linecap="round" stroke-linejoin="round"/><path d="M100 126 C86 111 68 105 48 105 C51 124 66 138 87 139 C93 139 97 135 100 130 C103 135 107 139 113 139 C134 138 149 124 152 105 C132 105 114 111 100 126Z M100 128 L100 164 M94 130 C83 120 72 114 61 110 M106 130 C117 120 128 114 139 110" fill="none" stroke="#FFF" stroke-width="8" stroke-linecap="round" stroke-linejoin="round"/></svg>
